<?xml version="1.0" encoding="UTF-8"?>
<svg width="210mm" height="210mm" version="1.1" viewBox="0 0 210 210" xmlns="http://www.w3.org/2000/svg" xmlns:xlink="http://www.w3.org/1999/xlink">
 <defs>
  <linearGradient id="b">
   <stop stop-color="#000000" offset="0"/>
   <stop stop-color="#555555" offset=".249"/>
   <stop stop-color="#222222" offset=".25"/>
   <stop stop-color="#555555" offset=".251"/>
   <stop stop-color="#000000" offset=".499"/>
   <stop stop-color="#888888" offset=".5"/>
   <stop stop-color="#000000" offset=".501"/>
   <stop stop-color="#555555" offset=".749"/>
   <stop stop-color="#222222" offset=".75"/>
   <stop stop-color="#555555" offset=".751"/>
   <stop stop-color="#000000" offset="1"/>
  </linearGradient>
  <linearGradient id="a">
   <stop stop-color="#000000" stop-opacity="0" offset="0"/>
   <stop stop-color="#ff0000" offset="0"/>
   <stop stop-color="#000000" stop-opacity="0" offset=".02"/>
   <stop stop-color="#ff0000" offset=".03"/>
   <stop stop-color="#000000" stop-opacity="0" offset=".04"/>
   <stop stop-color="#ff0000" offset=".05"/>
   <stop stop-color="#000000" stop-opacity="0" offset=".06"/>
   <stop stop-color="#ff0000" offset=".07"/>
   <stop stop-color="#000000" stop-opacity="0" offset=".08"/>
   <stop stop-color="#ff0000" offset=".09"/>
   <stop stop-color="#000000" stop-opacity="0" offset=".1"/>
   <stop stop-color="#ff0000" offset=".11"/>
   <stop stop-color="#000000" stop-opacity="0" offset=".12"/>
   <stop stop-color="#ff0000" offset=".13"/>
   <stop stop-color="#000000" stop-opacity="0" offset=".14"/>
   <stop stop-color="#ff0000" offset=".15"/>
   <stop stop-color="#000000" stop-opacity="0" offset=".16"/>
   <stop stop-color="#ff0000" offset=".17"/>
   <stop stop-color="#000000" stop-opacity="0" offset=".18"/>
   <stop stop-color="#ff0000" offset=".19"/>
   <stop stop-color="#000000" stop-opacity="0" offset=".2"/>
   <stop stop-color="#ff0000" offset=".21"/>
   <stop stop-color="#000000" stop-opacity="0" offset=".22"/>
   <stop stop-color="#ff0000" offset=".23"/>
   <stop stop-color="#000000" stop-opacity="0" offset=".24"/>
   <stop stop-color="#ff0000" offset=".25"/>
   <stop stop-color="#000000" stop-opacity="0" offset=".26"/>
   <stop stop-color="#ff0000" offset=".27"/>
   <stop stop-color="#000000" stop-opacity="0" offset=".28"/>
   <stop stop-color="#ff0000" offset=".29"/>
   <stop stop-color="#000000" stop-opacity="0" offset=".3"/>
   <stop stop-color="#ff0000" offset=".31"/>
   <stop stop-color="#000000" stop-opacity="0" offset=".32"/>
   <stop stop-color="#ff0000" offset=".33"/>
   <stop stop-color="#000000" stop-opacity="0" offset=".34"/>
   <stop stop-color="#ff0000" offset=".35"/>
   <stop stop-color="#000000" stop-opacity="0" offset=".36"/>
   <stop stop-color="#ff0000" offset=".37"/>
   <stop stop-color="#000000" stop-opacity="0" offset=".38"/>
   <stop stop-color="#ff0000" offset=".39"/>
   <stop stop-color="#000000" stop-opacity="0" offset=".4"/>
   <stop stop-color="#ff0000" offset=".41"/>
   <stop stop-color="#000000" stop-opacity="0" offset=".42"/>
   <stop stop-color="#ff0000" offset=".43"/>
   <stop stop-color="#000000" stop-opacity="0" offset=".44"/>
   <stop stop-color="#ff0000" offset=".45"/>
   <stop stop-color="#000000" stop-opacity="0" offset=".46"/>
   <stop stop-color="#ff0000" offset=".47"/>
   <stop stop-color="#000000" stop-opacity="0" offset=".48"/>
   <stop stop-color="#ff0000" offset=".49"/>
   <stop stop-color="#000000" stop-opacity="0" offset=".5"/>
   <stop stop-color="#000000" stop-opacity="0" offset="1"/>
  </linearGradient>
  <radialGradient id="e" cx="105" cy="190" r="190" fy="20" gradientUnits="userSpaceOnUse" xlink:href="#a"/>
  <radialGradient id="d" cx="105" cy="20" r="190" fy="190" gradientUnits="userSpaceOnUse" xlink:href="#a"/>
  <radialGradient id="c" cx="105" cy="20" r="80" fy="190" gradientUnits="userSpaceOnUse" xlink:href="#a"/>
  <filter id="f" x="-.09078" y="-.068018" width="1.18" height="1.136">
   <feGaussianBlur in="SourceGraphic" stdDeviation="5"/>
  </filter>
 </defs>
 <rect transform="rotate(90)" y="-210" width="210" height="210" fill="url(#b)"/>
 <rect width="210" height="210" fill="url(#b)" opacity=".5"/>
 <path d="m105 16.055-15.1 23.433 6.9028 88.304c-1.5745 2.3907-3.4515 7.3159-4.9968 9.7198-0.12071 0.1566 0.77237-0.33858 0.75682-0.31585 2.664-1.791 9.0972-6.0877 10.088-6.7531-0.41119-26.481-0.81315-54.106-1.2242-80.586l3.5735-7.2432v0.01712c0-0.0031 0-0.0067 0.0115-0.0093l3.573 7.2432c-0.41111 26.481-0.81251 54.106-1.2236 80.586 0.99097 0.66538 7.4242 4.9621 10.088 6.7531-0.0161-0.0227 0.87742 0.47297 0.75682 0.31631-1.5456-2.404-3.4224-7.3296-4.9969-9.7203l6.9028-88.304-15.1-23.434v-0.0067c0-1.14e-4 0-0.0031-0.0115-0.0031zm-67.771 34.233c3.548 15.406 5.6319 31.027 6.9285 46.672 0.9107 11.208 1.4189 22.44 1.4738 33.674 0.01084 1.0356 9e-5 2.0711-0.01539 3.1066 2.5284-3.0298 5.7046-5.6252 8.9825-8.0804 3.7759-14.851 4.7318-33.253 1.9712-47.31-0.39392-1.9734-0.94225-3.6697-1.5331-5.6738 7.2216 5.7592 15.457 9.5668 16.338 17.904 0.53242 5.0397-1.519 9.4415-2.9203 13.882-1.1651 3.5393-1.5104 7.2871-0.79027 10.918 0.35477 1.8756 1.0205 3.6977 1.7897 5.4801 0.15116 0.41274 0.38297 0.82066 0.39012 1.2585-0.01171 0.31868-0.21833 0.68354-0.62563 0.74896-5.8802 3.4668-11.244 7.5803-15.666 12.34-9.0578 10.428-13.255 20.75-13.037 32.995 0.03525 0.0888-0.09647 0.38294 0.1555 0.20227 11.513-3.3054 23.057-4.441 34.293-3.7497 1.1229 0.0881 2.2572 0.15525 3.3536 0.38738 0.35531 0.0795 0.71125 0.25817 0.839 0.56116 2.7239 3.7231 5.6725 6.3937 10.27 7.636 1.5465 0.35421 5.0138 0.62266 6.6195 0.67493-1.0024-1.9979-1.5098-4.3371-1.7497-6.5028 0-0.47621-0.77932-0.47667-1.1291-0.7557-5.1122-2.7226-7.0142-4.7504-6.6605-9.673-0.05064-0.23027 0.22963-0.6566-0.20749-0.66295-9.7443-2.0224-21.363-1.9464-30.383-1.1806-0.21562 0.0173-0.43116 0.0346-0.6467 0.0519 0.21562-1.027 0.45819-2.0512 0.81133-3.0523 2.8927-9.4546 10.387-18.851 20.804-20.75 2.3191-0.34253 4.6911-0.53064 7.0437-0.35752 0.18951-0.0352 0.52898 0.15602 0.60285-0.0398 1.0835-2.1244 2.1669-4.2486 3.2505-6.373-0.53595-0.3291-1.0732-0.65651-1.611-0.98333 0.17052 0.0931-0.31499-0.15622-0.38026-0.19506-2.0566-1.1052-3.5806-2.8136-4.4858-4.7-1.2039-2.493-1.5113-5.2236-1.4041-7.8916-0.17674-6.7734 4.5606-11.687 5.2671-18.032 0.44301-3.9783 0.54463-8.2005-1.3349-11.86-7.2865-14.186-28.879-22.851-42.803-29.108-1.2565-0.53792-2.5198-1.0653-3.8008-1.5612zm135.55 0.0093c-1.281 0.49589-2.5444 1.0233-3.8009 1.5612-13.924 6.2577-35.517 14.922-42.803 29.108-1.8795 3.6593-1.7778 7.8816-1.3348 11.86 0.70645 6.3452 5.4438 11.259 5.267 18.032 0.10727 2.668-0.20003 5.3987-1.404 7.8917-0.90526 1.8863-2.4293 3.5947-4.4859 4.6999-0.0659 0.0388-0.55077 0.28814-0.38029 0.19503-0.5379 0.32683-1.075 0.65427-1.6109 0.98337 1.0835 2.1244 2.167 4.2486 3.2505 6.373 0.0733 0.19573 0.41326 4e-3 0.60287 0.0395 2.3526-0.17313 4.7244 0.0154 7.0437 0.3575 10.417 1.8994 17.911 11.296 20.804 20.75 0.35324 1.0011 0.59579 2.0253 0.81143 3.0523-0.21541-0.0173-0.43117-0.0346-0.6466-0.0521-9.0195-0.7658-20.639-0.84175-30.383 1.1806-0.4373 5e-3 -0.15662 0.43269-0.20761 0.66297 0.19107 4.7332-1.7099 7.5006-6.4723 9.8652-0.34979 0.27907-1.129 0.27951-1.129 0.75573-0.23985 2.1657-0.74734 4.505-1.7497 6.5028 1.6058-0.0523 4.8847-0.51291 6.4313-0.86713 4.5979-1.2423 7.5463-3.9129 10.27-7.636 0.12769-0.30295 0.48367-0.48171 0.8389-0.56115 1.0965-0.23215 2.2307-0.29931 3.3536-0.38737 11.235-0.69129 22.779 0.44432 34.293 3.7496 0.25188 0.18064 0.1208-0.11331 0.15571-0.20225 0.2177-12.245-3.9794-22.567-13.037-32.995-4.4224-4.7597-9.7856-8.8732-15.666-12.34-0.40738-0.0654-0.61361-0.43025-0.62553-0.74897 0.0115-0.43782 0.23878-0.84572 0.39002-1.2584 0.76921-1.7825 1.4349-3.6045 1.7897-5.4801 0.72012-3.6306 0.37474-7.3784-0.79036-10.918-1.4013-4.4407-3.4527-8.8425-2.9204-13.882 0.88067-8.337 9.1164-12.145 16.338-17.904-0.59091 2.0041-1.1394 3.7005-1.5332 5.6738-2.7606 14.057-1.8048 32.459 1.9712 47.31 3.2779 2.4552 6.4542 5.0506 8.9826 8.0804-0.0161-1.0355-0.0207-2.071-0.0161-3.1066 0.0551-11.234 0.56306-22.466 1.4737-33.674 1.2968-15.645 3.3806-31.266 6.9286-46.672zm-67.777 82.026-11.332 7.488c-6.0773 0.80436-8.1881 0.27247-14.298 0.47516-0.55096-0.53274-1.2203-0.98979-2.0106-1.2476-1.6293-0.56946-3.6133-0.31764-4.9629 0.63716-1.3191 0.89437-2.0025 2.3885-1.7286 3.7922 0.26228 1.5381 1.6655 2.8818 3.4465 3.3116 1.5156 0.38961 3.2358 0.099 4.468-0.73218 0.10189-0.0888 0.25821-0.0154 0.38731-0.0245 5.0417 0.35122 10.086 0.68323 15.119 1.1204 0.68928 0.071 1.386 0.11293 2.0647 0.23985 0.17729 0.0695 0.34772 0.15101 0.52239 0.22537-0.58495 6.1934-0.17132 12.429 0.82046 18.579 0.66188 4.0566 1.5856 8.0842 2.7778 12.055 0.14676 0.46647 0.30641 0.92926 0.46887 1.392-0.91965 0.84162-1.8641 1.6671-2.7189 2.5563-0.18372 0.25935-0.45421 0.47896-0.62337 0.74622-0.3177 2.182 0.07786 4.4796 1.4143 6.3938 0.49056 0.72579 1.0712 1.4089 1.7632 2.0101 0.74921 0.65365 1.624 1.1981 2.5137 1.7097 0.60628 0.33797 1.2386 0.6462 1.9085 0.88741v5e-3s0 4e-3 0.0115 4e-3c0.66994-0.24116 1.3022-0.54987 1.9086-0.88785 0.88956-0.51153 1.7644-1.0555 2.5136-1.7092 0.69209-0.60125 1.2726-1.2848 1.7632-2.0106 1.3366-1.9142 1.7321-4.2118 1.4142-6.3938-0.16902-0.26725-0.43964-0.4869-0.62327-0.74624-0.85482-0.8892-1.7992-1.7142-2.7188-2.5559 0.16237-0.46271 0.32214-0.926 0.46877-1.3924 1.1922-3.9707 2.116-7.9979 2.7778-12.054 0.99198-6.1491 1.4055-12.386 0.82064-18.579 0.17454-0.0743 0.3451-0.15603 0.5223-0.22538 0.67881-0.12678 1.3754-0.16872 2.0647-0.23984 5.0324-0.4372 10.077-0.76921 15.119-1.1205 0.12907 7e-3 0.2856-0.0645 0.3874 0.0245 1.2321 0.83119 2.9524 1.1218 4.468 0.73216 1.781-0.42973 3.1843-1.7735 3.4466-3.3116 0.27378-1.4037-0.40953-2.8978-1.7286-3.7922-1.3497-0.95478-3.3338-1.2066-4.9628-0.63715-0.79038 0.25784-1.4598 0.71488-2.0107 1.2476-6.1099-0.20265-8.2208 0.3292-14.298-0.47514l-11.332-7.488v-4e-3c0-4e-3 0-4e-3 -0.0115-4e-3zm-64.482 36.133c-0.07053 0.0135 0.01539 0.0797 0 0zm128.97 0.01c-0.0161 0.0797 0.0705 0.0135 0 0z" fill="url(#e)" fill-opacity=".4" stroke="red" stroke-width=".2"/>
 <path d="m105 16.055-15.1 23.433 6.9028 88.304c-1.5745 2.3907-3.4515 7.3159-4.9968 9.7198-0.12071 0.1566 0.77237-0.33858 0.75682-0.31585 2.664-1.791 9.0972-6.0877 10.088-6.7531-0.41119-26.481-0.81315-54.106-1.2242-80.586l3.5735-7.2432v0.01712c0-0.0031 0-0.0067 0.0115-0.0093l3.573 7.2432c-0.41111 26.481-0.81251 54.106-1.2236 80.586 0.99097 0.66538 7.4242 4.9621 10.088 6.7531-0.0161-0.0227 0.87742 0.47297 0.75682 0.31631-1.5456-2.404-3.4224-7.3296-4.9969-9.7203l6.9028-88.304-15.1-23.434v-0.0067c0-1.14e-4 0-0.0031-0.0115-0.0031zm-67.771 34.233c3.548 15.406 5.6319 31.027 6.9285 46.672 0.9107 11.208 1.4189 22.44 1.4738 33.674 0.01084 1.0356 9e-5 2.0711-0.01539 3.1066 2.5284-3.0298 5.7046-5.6252 8.9825-8.0804 3.7759-14.851 4.7318-33.253 1.9712-47.31-0.39392-1.9734-0.94225-3.6697-1.5331-5.6738 7.2216 5.7592 15.457 9.5668 16.338 17.904 0.53242 5.0397-1.519 9.4415-2.9203 13.882-1.1651 3.5393-1.5104 7.2871-0.79027 10.918 0.35477 1.8756 1.0205 3.6977 1.7897 5.4801 0.15116 0.41274 0.38297 0.82066 0.39012 1.2585-0.01171 0.31868-0.21833 0.68354-0.62563 0.74896-5.8802 3.4668-11.244 7.5803-15.666 12.34-9.0578 10.428-13.255 20.75-13.037 32.995 0.03525 0.0888-0.09647 0.38294 0.1555 0.20227 11.513-3.3054 23.057-4.441 34.293-3.7497 1.1229 0.0881 2.2572 0.15525 3.3536 0.38738 0.35531 0.0795 0.71125 0.25817 0.839 0.56116 2.7239 3.7231 5.6725 6.3937 10.27 7.636 1.5465 0.35421 5.0138 0.62266 6.6195 0.67493-1.0024-1.9979-1.5098-4.3371-1.7497-6.5028 0-0.47621-0.77932-0.47667-1.1291-0.7557-5.1122-2.7226-7.0142-4.7504-6.6605-9.673-0.05064-0.23027 0.22963-0.6566-0.20749-0.66295-9.7443-2.0224-21.363-1.9464-30.383-1.1806-0.21562 0.0173-0.43116 0.0346-0.6467 0.0519 0.21562-1.027 0.45819-2.0512 0.81133-3.0523 2.8927-9.4546 10.387-18.851 20.804-20.75 2.3191-0.34253 4.6911-0.53064 7.0437-0.35752 0.18951-0.0352 0.52898 0.15602 0.60285-0.0398 1.0835-2.1244 2.1669-4.2486 3.2505-6.373-0.53595-0.3291-1.0732-0.65651-1.611-0.98333 0.17052 0.0931-0.31499-0.15622-0.38026-0.19506-2.0566-1.1052-3.5806-2.8136-4.4858-4.7-1.2039-2.493-1.5113-5.2236-1.4041-7.8916-0.17674-6.7734 4.5606-11.687 5.2671-18.032 0.44301-3.9783 0.54463-8.2005-1.3349-11.86-7.2865-14.186-28.879-22.851-42.803-29.108-1.2565-0.53792-2.5198-1.0653-3.8008-1.5612zm135.55 0.0093c-1.281 0.49589-2.5444 1.0233-3.8009 1.5612-13.924 6.2577-35.517 14.922-42.803 29.108-1.8795 3.6593-1.7778 7.8816-1.3348 11.86 0.70645 6.3452 5.4438 11.259 5.267 18.032 0.10727 2.668-0.20003 5.3987-1.404 7.8917-0.90526 1.8863-2.4293 3.5947-4.4859 4.6999-0.0659 0.0388-0.55077 0.28814-0.38029 0.19503-0.5379 0.32683-1.075 0.65427-1.6109 0.98337 1.0835 2.1244 2.167 4.2486 3.2505 6.373 0.0733 0.19573 0.41326 4e-3 0.60287 0.0395 2.3526-0.17313 4.7244 0.0154 7.0437 0.3575 10.417 1.8994 17.911 11.296 20.804 20.75 0.35324 1.0011 0.59579 2.0253 0.81143 3.0523-0.21541-0.0173-0.43117-0.0346-0.6466-0.0521-9.0195-0.7658-20.639-0.84175-30.383 1.1806-0.4373 5e-3 -0.15662 0.43269-0.20761 0.66297 0.19107 4.7332-1.7099 7.5006-6.4723 9.8652-0.34979 0.27907-1.129 0.27951-1.129 0.75573-0.23985 2.1657-0.74734 4.505-1.7497 6.5028 1.6058-0.0523 4.8847-0.51291 6.4313-0.86713 4.5979-1.2423 7.5463-3.9129 10.27-7.636 0.12769-0.30295 0.48367-0.48171 0.8389-0.56115 1.0965-0.23215 2.2307-0.29931 3.3536-0.38737 11.235-0.69129 22.779 0.44432 34.293 3.7496 0.25188 0.18064 0.1208-0.11331 0.15571-0.20225 0.2177-12.245-3.9794-22.567-13.037-32.995-4.4224-4.7597-9.7856-8.8732-15.666-12.34-0.40738-0.0654-0.61361-0.43025-0.62553-0.74897 0.0115-0.43782 0.23878-0.84572 0.39002-1.2584 0.76921-1.7825 1.4349-3.6045 1.7897-5.4801 0.72012-3.6306 0.37474-7.3784-0.79036-10.918-1.4013-4.4407-3.4527-8.8425-2.9204-13.882 0.88067-8.337 9.1164-12.145 16.338-17.904-0.59091 2.0041-1.1394 3.7005-1.5332 5.6738-2.7606 14.057-1.8048 32.459 1.9712 47.31 3.2779 2.4552 6.4542 5.0506 8.9826 8.0804-0.0161-1.0355-0.0207-2.071-0.0161-3.1066 0.0551-11.234 0.56306-22.466 1.4737-33.674 1.2968-15.645 3.3806-31.266 6.9286-46.672zm-67.777 82.026-11.332 7.488c-6.0773 0.80436-8.1881 0.27247-14.298 0.47516-0.55096-0.53274-1.2203-0.98979-2.0106-1.2476-1.6293-0.56946-3.6133-0.31764-4.9629 0.63716-1.3191 0.89437-2.0025 2.3885-1.7286 3.7922 0.26228 1.5381 1.6655 2.8818 3.4465 3.3116 1.5156 0.38961 3.2358 0.099 4.468-0.73218 0.10189-0.0888 0.25821-0.0154 0.38731-0.0245 5.0417 0.35122 10.086 0.68323 15.119 1.1204 0.68928 0.071 1.386 0.11293 2.0647 0.23985 0.17729 0.0695 0.34772 0.15101 0.52239 0.22537-0.58495 6.1934-0.17132 12.429 0.82046 18.579 0.66188 4.0566 1.5856 8.0842 2.7778 12.055 0.14676 0.46647 0.30641 0.92926 0.46887 1.392-0.91965 0.84162-1.8641 1.6671-2.7189 2.5563-0.18372 0.25935-0.45421 0.47896-0.62337 0.74622-0.3177 2.182 0.07786 4.4796 1.4143 6.3938 0.49056 0.72579 1.0712 1.4089 1.7632 2.0101 0.74921 0.65365 1.624 1.1981 2.5137 1.7097 0.60628 0.33797 1.2386 0.6462 1.9085 0.88741v5e-3s0 4e-3 0.0115 4e-3c0.66994-0.24116 1.3022-0.54987 1.9086-0.88785 0.88956-0.51153 1.7644-1.0555 2.5136-1.7092 0.69209-0.60125 1.2726-1.2848 1.7632-2.0106 1.3366-1.9142 1.7321-4.2118 1.4142-6.3938-0.16902-0.26725-0.43964-0.4869-0.62327-0.74624-0.85482-0.8892-1.7992-1.7142-2.7188-2.5559 0.16237-0.46271 0.32214-0.926 0.46877-1.3924 1.1922-3.9707 2.116-7.9979 2.7778-12.054 0.99198-6.1491 1.4055-12.386 0.82064-18.579 0.17454-0.0743 0.3451-0.15603 0.5223-0.22538 0.67881-0.12678 1.3754-0.16872 2.0647-0.23984 5.0324-0.4372 10.077-0.76921 15.119-1.1205 0.12907 7e-3 0.2856-0.0645 0.3874 0.0245 1.2321 0.83119 2.9524 1.1218 4.468 0.73216 1.781-0.42973 3.1843-1.7735 3.4466-3.3116 0.27378-1.4037-0.40953-2.8978-1.7286-3.7922-1.3497-0.95478-3.3338-1.2066-4.9628-0.63715-0.79038 0.25784-1.4598 0.71488-2.0107 1.2476-6.1099-0.20265-8.2208 0.3292-14.298-0.47514l-11.332-7.488v-4e-3c0-4e-3 0-4e-3 -0.0115-4e-3zm-64.482 36.133c-0.07053 0.0135 0.01539 0.0797 0 0zm128.97 0.01c-0.0161 0.0797 0.0705 0.0135 0 0z" fill="url(#d)" fill-opacity=".4" stroke="red" stroke-width=".2"/>
 <path d="m105 16.055-15.1 23.433 6.9028 88.304c-1.5745 2.3907-3.4515 7.3159-4.9968 9.7198-0.12071 0.1566 0.77237-0.33858 0.75682-0.31585 2.664-1.791 9.0972-6.0877 10.088-6.7531-0.41119-26.481-0.81315-54.106-1.2242-80.586l3.5735-7.2432v0.01712c0-0.0031 0-0.0067 0.0115-0.0093l3.573 7.2432c-0.41111 26.481-0.81251 54.106-1.2236 80.586 0.99097 0.66538 7.4242 4.9621 10.088 6.7531-0.0161-0.0227 0.87742 0.47297 0.75682 0.31631-1.5456-2.404-3.4224-7.3296-4.9969-9.7203l6.9028-88.304-15.1-23.434v-0.0067c0-1.14e-4 0-0.0031-0.0115-0.0031zm-67.771 34.233c3.548 15.406 5.6319 31.027 6.9285 46.672 0.9107 11.208 1.4189 22.44 1.4738 33.674 0.01084 1.0356 9e-5 2.0711-0.01539 3.1066 2.5284-3.0298 5.7046-5.6252 8.9825-8.0804 3.7759-14.851 4.7318-33.253 1.9712-47.31-0.39392-1.9734-0.94225-3.6697-1.5331-5.6738 7.2216 5.7592 15.457 9.5668 16.338 17.904 0.53242 5.0397-1.519 9.4415-2.9203 13.882-1.1651 3.5393-1.5104 7.2871-0.79027 10.918 0.35477 1.8756 1.0205 3.6977 1.7897 5.4801 0.15116 0.41274 0.38297 0.82066 0.39012 1.2585-0.01171 0.31868-0.21833 0.68354-0.62563 0.74896-5.8802 3.4668-11.244 7.5803-15.666 12.34-9.0578 10.428-13.255 20.75-13.037 32.995 0.03525 0.0888-0.09647 0.38294 0.1555 0.20227 11.513-3.3054 23.057-4.441 34.293-3.7497 1.1229 0.0881 2.2572 0.15525 3.3536 0.38738 0.35531 0.0795 0.71125 0.25817 0.839 0.56116 2.7239 3.7231 5.6725 6.3937 10.27 7.636 1.5465 0.35421 5.0138 0.62266 6.6195 0.67493-1.0024-1.9979-1.5098-4.3371-1.7497-6.5028 0-0.47621-0.77932-0.47667-1.1291-0.7557-5.1122-2.7226-7.0142-4.7504-6.6605-9.673-0.05064-0.23027 0.22963-0.6566-0.20749-0.66295-9.7443-2.0224-21.363-1.9464-30.383-1.1806-0.21562 0.0173-0.43116 0.0346-0.6467 0.0519 0.21562-1.027 0.45819-2.0512 0.81133-3.0523 2.8927-9.4546 10.387-18.851 20.804-20.75 2.3191-0.34253 4.6911-0.53064 7.0437-0.35752 0.18951-0.0352 0.52898 0.15602 0.60285-0.0398 1.0835-2.1244 2.1669-4.2486 3.2505-6.373-0.53595-0.3291-1.0732-0.65651-1.611-0.98333 0.17052 0.0931-0.31499-0.15622-0.38026-0.19506-2.0566-1.1052-3.5806-2.8136-4.4858-4.7-1.2039-2.493-1.5113-5.2236-1.4041-7.8916-0.17674-6.7734 4.5606-11.687 5.2671-18.032 0.44301-3.9783 0.54463-8.2005-1.3349-11.86-7.2865-14.186-28.879-22.851-42.803-29.108-1.2565-0.53792-2.5198-1.0653-3.8008-1.5612zm135.55 0.0093c-1.281 0.49589-2.5444 1.0233-3.8009 1.5612-13.924 6.2577-35.517 14.922-42.803 29.108-1.8795 3.6593-1.7778 7.8816-1.3348 11.86 0.70645 6.3452 5.4438 11.259 5.267 18.032 0.10727 2.668-0.20003 5.3987-1.404 7.8917-0.90526 1.8863-2.4293 3.5947-4.4859 4.6999-0.0659 0.0388-0.55077 0.28814-0.38029 0.19503-0.5379 0.32683-1.075 0.65427-1.6109 0.98337 1.0835 2.1244 2.167 4.2486 3.2505 6.373 0.0733 0.19573 0.41326 4e-3 0.60287 0.0395 2.3526-0.17313 4.7244 0.0154 7.0437 0.3575 10.417 1.8994 17.911 11.296 20.804 20.75 0.35324 1.0011 0.59579 2.0253 0.81143 3.0523-0.21541-0.0173-0.43117-0.0346-0.6466-0.0521-9.0195-0.7658-20.639-0.84175-30.383 1.1806-0.4373 5e-3 -0.15662 0.43269-0.20761 0.66297 0.19107 4.7332-1.7099 7.5006-6.4723 9.8652-0.34979 0.27907-1.129 0.27951-1.129 0.75573-0.23985 2.1657-0.74734 4.505-1.7497 6.5028 1.6058-0.0523 4.8847-0.51291 6.4313-0.86713 4.5979-1.2423 7.5463-3.9129 10.27-7.636 0.12769-0.30295 0.48367-0.48171 0.8389-0.56115 1.0965-0.23215 2.2307-0.29931 3.3536-0.38737 11.235-0.69129 22.779 0.44432 34.293 3.7496 0.25188 0.18064 0.1208-0.11331 0.15571-0.20225 0.2177-12.245-3.9794-22.567-13.037-32.995-4.4224-4.7597-9.7856-8.8732-15.666-12.34-0.40738-0.0654-0.61361-0.43025-0.62553-0.74897 0.0115-0.43782 0.23878-0.84572 0.39002-1.2584 0.76921-1.7825 1.4349-3.6045 1.7897-5.4801 0.72012-3.6306 0.37474-7.3784-0.79036-10.918-1.4013-4.4407-3.4527-8.8425-2.9204-13.882 0.88067-8.337 9.1164-12.145 16.338-17.904-0.59091 2.0041-1.1394 3.7005-1.5332 5.6738-2.7606 14.057-1.8048 32.459 1.9712 47.31 3.2779 2.4552 6.4542 5.0506 8.9826 8.0804-0.0161-1.0355-0.0207-2.071-0.0161-3.1066 0.0551-11.234 0.56306-22.466 1.4737-33.674 1.2968-15.645 3.3806-31.266 6.9286-46.672zm-67.777 82.026-11.332 7.488c-6.0773 0.80436-8.1881 0.27247-14.298 0.47516-0.55096-0.53274-1.2203-0.98979-2.0106-1.2476-1.6293-0.56946-3.6133-0.31764-4.9629 0.63716-1.3191 0.89437-2.0025 2.3885-1.7286 3.7922 0.26228 1.5381 1.6655 2.8818 3.4465 3.3116 1.5156 0.38961 3.2358 0.099 4.468-0.73218 0.10189-0.0888 0.25821-0.0154 0.38731-0.0245 5.0417 0.35122 10.086 0.68323 15.119 1.1204 0.68928 0.071 1.386 0.11293 2.0647 0.23985 0.17729 0.0695 0.34772 0.15101 0.52239 0.22537-0.58495 6.1934-0.17132 12.429 0.82046 18.579 0.66188 4.0566 1.5856 8.0842 2.7778 12.055 0.14676 0.46647 0.30641 0.92926 0.46887 1.392-0.91965 0.84162-1.8641 1.6671-2.7189 2.5563-0.18372 0.25935-0.45421 0.47896-0.62337 0.74622-0.3177 2.182 0.07786 4.4796 1.4143 6.3938 0.49056 0.72579 1.0712 1.4089 1.7632 2.0101 0.74921 0.65365 1.624 1.1981 2.5137 1.7097 0.60628 0.33797 1.2386 0.6462 1.9085 0.88741v5e-3s0 4e-3 0.0115 4e-3c0.66994-0.24116 1.3022-0.54987 1.9086-0.88785 0.88956-0.51153 1.7644-1.0555 2.5136-1.7092 0.69209-0.60125 1.2726-1.2848 1.7632-2.0106 1.3366-1.9142 1.7321-4.2118 1.4142-6.3938-0.16902-0.26725-0.43964-0.4869-0.62327-0.74624-0.85482-0.8892-1.7992-1.7142-2.7188-2.5559 0.16237-0.46271 0.32214-0.926 0.46877-1.3924 1.1922-3.9707 2.116-7.9979 2.7778-12.054 0.99198-6.1491 1.4055-12.386 0.82064-18.579 0.17454-0.0743 0.3451-0.15603 0.5223-0.22538 0.67881-0.12678 1.3754-0.16872 2.0647-0.23984 5.0324-0.4372 10.077-0.76921 15.119-1.1205 0.12907 7e-3 0.2856-0.0645 0.3874 0.0245 1.2321 0.83119 2.9524 1.1218 4.468 0.73216 1.781-0.42973 3.1843-1.7735 3.4466-3.3116 0.27378-1.4037-0.40953-2.8978-1.7286-3.7922-1.3497-0.95478-3.3338-1.2066-4.9628-0.63715-0.79038 0.25784-1.4598 0.71488-2.0107 1.2476-6.1099-0.20265-8.2208 0.3292-14.298-0.47514l-11.332-7.488v-4e-3c0-4e-3 0-4e-3 -0.0115-4e-3zm-64.482 36.133c-0.07053 0.0135 0.01539 0.0797 0 0zm128.97 0.01c-0.0161 0.0797 0.0705 0.0135 0 0z" fill="url(#c)" fill-opacity=".6" stroke="red" stroke-width=".2"/>
 <path d="m105 16.055-15.1 23.433 6.9028 88.304c-1.5745 2.3907-3.4515 7.3159-4.9968 9.7198-0.12071 0.1566 0.77237-0.33858 0.75682-0.31585 2.664-1.791 9.0972-6.0877 10.088-6.7531-0.41119-26.481-0.81315-54.106-1.2242-80.586l3.5735-7.2432v0.01712c0-0.0031 0-0.0067 0.0115-0.0093l3.573 7.2432c-0.41111 26.481-0.81251 54.106-1.2236 80.586 0.99097 0.66538 7.4242 4.9621 10.088 6.7531-0.0161-0.0227 0.87742 0.47297 0.75682 0.31631-1.5456-2.404-3.4224-7.3296-4.9969-9.7203l6.9028-88.304-15.1-23.434v-0.0067c0-1.14e-4 0-0.0031-0.0115-0.0031zm-67.771 34.233c3.548 15.406 5.6319 31.027 6.9285 46.672 0.9107 11.208 1.4189 22.44 1.4738 33.674 0.01084 1.0356 9e-5 2.0711-0.01539 3.1066 2.5284-3.0298 5.7046-5.6252 8.9825-8.0804 3.7759-14.851 4.7318-33.253 1.9712-47.31-0.39392-1.9734-0.94225-3.6697-1.5331-5.6738 7.2216 5.7592 15.457 9.5668 16.338 17.904 0.53242 5.0397-1.519 9.4415-2.9203 13.882-1.1651 3.5393-1.5104 7.2871-0.79027 10.918 0.35477 1.8756 1.0205 3.6977 1.7897 5.4801 0.15116 0.41274 0.38297 0.82066 0.39012 1.2585-0.01171 0.31868-0.21833 0.68354-0.62563 0.74896-5.8802 3.4668-11.244 7.5803-15.666 12.34-9.0578 10.428-13.255 20.75-13.037 32.995 0.03525 0.0888-0.09647 0.38294 0.1555 0.20227 11.513-3.3054 23.057-4.441 34.293-3.7497 1.1229 0.0881 2.2572 0.15525 3.3536 0.38738 0.35531 0.0795 0.71125 0.25817 0.839 0.56116 2.7239 3.7231 5.6725 6.3937 10.27 7.636 1.5465 0.35421 5.0138 0.62266 6.6195 0.67493-1.0024-1.9979-1.5098-4.3371-1.7497-6.5028 0-0.47621-0.77932-0.47667-1.1291-0.7557-5.1122-2.7226-7.0142-4.7504-6.6605-9.673-0.05064-0.23027 0.22963-0.6566-0.20749-0.66295-9.7443-2.0224-21.363-1.9464-30.383-1.1806-0.21562 0.0173-0.43116 0.0346-0.6467 0.0519 0.21562-1.027 0.45819-2.0512 0.81133-3.0523 2.8927-9.4546 10.387-18.851 20.804-20.75 2.3191-0.34253 4.6911-0.53064 7.0437-0.35752 0.18951-0.0352 0.52898 0.15602 0.60285-0.0398 1.0835-2.1244 2.1669-4.2486 3.2505-6.373-0.53595-0.3291-1.0732-0.65651-1.611-0.98333 0.17052 0.0931-0.31499-0.15622-0.38026-0.19506-2.0566-1.1052-3.5806-2.8136-4.4858-4.7-1.2039-2.493-1.5113-5.2236-1.4041-7.8916-0.17674-6.7734 4.5606-11.687 5.2671-18.032 0.44301-3.9783 0.54463-8.2005-1.3349-11.86-7.2865-14.186-28.879-22.851-42.803-29.108-1.2565-0.53792-2.5198-1.0653-3.8008-1.5612zm135.55 0.0093c-1.281 0.49589-2.5444 1.0233-3.8009 1.5612-13.924 6.2577-35.517 14.922-42.803 29.108-1.8795 3.6593-1.7778 7.8816-1.3348 11.86 0.70645 6.3452 5.4438 11.259 5.267 18.032 0.10727 2.668-0.20003 5.3987-1.404 7.8917-0.90526 1.8863-2.4293 3.5947-4.4859 4.6999-0.0659 0.0388-0.55077 0.28814-0.38029 0.19503-0.5379 0.32683-1.075 0.65427-1.6109 0.98337 1.0835 2.1244 2.167 4.2486 3.2505 6.373 0.0733 0.19573 0.41326 4e-3 0.60287 0.0395 2.3526-0.17313 4.7244 0.0154 7.0437 0.3575 10.417 1.8994 17.911 11.296 20.804 20.75 0.35324 1.0011 0.59579 2.0253 0.81143 3.0523-0.21541-0.0173-0.43117-0.0346-0.6466-0.0521-9.0195-0.7658-20.639-0.84175-30.383 1.1806-0.4373 5e-3 -0.15662 0.43269-0.20761 0.66297 0.19107 4.7332-1.7099 7.5006-6.4723 9.8652-0.34979 0.27907-1.129 0.27951-1.129 0.75573-0.23985 2.1657-0.74734 4.505-1.7497 6.5028 1.6058-0.0523 4.8847-0.51291 6.4313-0.86713 4.5979-1.2423 7.5463-3.9129 10.27-7.636 0.12769-0.30295 0.48367-0.48171 0.8389-0.56115 1.0965-0.23215 2.2307-0.29931 3.3536-0.38737 11.235-0.69129 22.779 0.44432 34.293 3.7496 0.25188 0.18064 0.1208-0.11331 0.15571-0.20225 0.2177-12.245-3.9794-22.567-13.037-32.995-4.4224-4.7597-9.7856-8.8732-15.666-12.34-0.40738-0.0654-0.61361-0.43025-0.62553-0.74897 0.0115-0.43782 0.23878-0.84572 0.39002-1.2584 0.76921-1.7825 1.4349-3.6045 1.7897-5.4801 0.72012-3.6306 0.37474-7.3784-0.79036-10.918-1.4013-4.4407-3.4527-8.8425-2.9204-13.882 0.88067-8.337 9.1164-12.145 16.338-17.904-0.59091 2.0041-1.1394 3.7005-1.5332 5.6738-2.7606 14.057-1.8048 32.459 1.9712 47.31 3.2779 2.4552 6.4542 5.0506 8.9826 8.0804-0.0161-1.0355-0.0207-2.071-0.0161-3.1066 0.0551-11.234 0.56306-22.466 1.4737-33.674 1.2968-15.645 3.3806-31.266 6.9286-46.672zm-67.777 82.026-11.332 7.488c-6.0773 0.80436-8.1881 0.27247-14.298 0.47516-0.55096-0.53274-1.2203-0.98979-2.0106-1.2476-1.6293-0.56946-3.6133-0.31764-4.9629 0.63716-1.3191 0.89437-2.0025 2.3885-1.7286 3.7922 0.26228 1.5381 1.6655 2.8818 3.4465 3.3116 1.5156 0.38961 3.2358 0.099 4.468-0.73218 0.10189-0.0888 0.25821-0.0154 0.38731-0.0245 5.0417 0.35122 10.086 0.68323 15.119 1.1204 0.68928 0.071 1.386 0.11293 2.0647 0.23985 0.17729 0.0695 0.34772 0.15101 0.52239 0.22537-0.58495 6.1934-0.17132 12.429 0.82046 18.579 0.66188 4.0566 1.5856 8.0842 2.7778 12.055 0.14676 0.46647 0.30641 0.92926 0.46887 1.392-0.91965 0.84162-1.8641 1.6671-2.7189 2.5563-0.18372 0.25935-0.45421 0.47896-0.62337 0.74622-0.3177 2.182 0.07786 4.4796 1.4143 6.3938 0.49056 0.72579 1.0712 1.4089 1.7632 2.0101 0.74921 0.65365 1.624 1.1981 2.5137 1.7097 0.60628 0.33797 1.2386 0.6462 1.9085 0.88741v5e-3s0 4e-3 0.0115 4e-3c0.66994-0.24116 1.3022-0.54987 1.9086-0.88785 0.88956-0.51153 1.7644-1.0555 2.5136-1.7092 0.69209-0.60125 1.2726-1.2848 1.7632-2.0106 1.3366-1.9142 1.7321-4.2118 1.4142-6.3938-0.16902-0.26725-0.43964-0.4869-0.62327-0.74624-0.85482-0.8892-1.7992-1.7142-2.7188-2.5559 0.16237-0.46271 0.32214-0.926 0.46877-1.3924 1.1922-3.9707 2.116-7.9979 2.7778-12.054 0.99198-6.1491 1.4055-12.386 0.82064-18.579 0.17454-0.0743 0.3451-0.15603 0.5223-0.22538 0.67881-0.12678 1.3754-0.16872 2.0647-0.23984 5.0324-0.4372 10.077-0.76921 15.119-1.1205 0.12907 7e-3 0.2856-0.0645 0.3874 0.0245 1.2321 0.83119 2.9524 1.1218 4.468 0.73216 1.781-0.42973 3.1843-1.7735 3.4466-3.3116 0.27378-1.4037-0.40953-2.8978-1.7286-3.7922-1.3497-0.95478-3.3338-1.2066-4.9628-0.63715-0.79038 0.25784-1.4598 0.71488-2.0107 1.2476-6.1099-0.20265-8.2208 0.3292-14.298-0.47514l-11.332-7.488v-4e-3c0-4e-3 0-4e-3 -0.0115-4e-3zm-64.482 36.133c-0.07053 0.0135 0.01539 0.0797 0 0zm128.97 0.01c-0.0161 0.0797 0.0705 0.0135 0 0z" fill="#ff0017" fill-opacity=".8" filter="url(#f)" stroke="red" stroke-width=".2"/>
 <path d="m45.955 33.66-0.93273 0.43515c-1.0415 0.16154-1.6193 0.34842-2.122 0.68395-0.89165 0.60893-1.2547 1.4784-1.0706 2.5719 0.04395 0.26098 0.09779 0.4351 0.22278 0.80791l0.91711-0.45944c-0.21018-0.58407-0.23728-0.67118-0.27913-0.91973-0.14225-0.84503 0.03086-1.3669 0.59553-1.777 0.43027-0.32311 0.91408-0.47213 1.6886-0.52185l-0.29993 3.678c-0.16003 2.1499-0.32554 2.4234-1.5101 2.5477l-0.48369 0.59638c0.32311 0 0.33562-2.67e-4 0.72295 0.01168h0.42302c0.07448 0 0.23597 4.35e-4 0.43689 0.01345 0.83472 0.01168 0.83473 0.01168 1.0584 0.01168 0.85748 0 1.4639-0.1612 2.2399-0.57126 1.0222-0.57164 1.4495-1.2799 1.2968-2.187-0.06491-0.38524-0.31184-0.74603-0.66227-0.98215-0.29444-0.19883-0.58025-0.27304-1.1893-0.3476 1.1506-0.54678 1.6448-1.2305 1.5109-2.0258-0.14024-0.83262-0.85731-1.1807-2.4107-1.1807h-0.18724zm5.1699 0c-0.30192 0.27339-0.55037 0.49753-0.74895 0.64666 0.13084 0.26098 0.27857 0.47178 0.61893 0.86946 0.29565-0.31068 0.32709-0.34784 0.6952-0.67093-0.04981-0.07448-0.0832-0.12363-0.20976-0.2852-0.09965-0.14913-0.11189-0.14929-0.25313-0.39789zm97.623 0c-0.73321 0-1.3788 0.52253-1.7935 1.4546l0.2141 0.38488c0.22871-0.70834 0.64601-1.1061 1.1555-1.1061 0.70833 0 1.2134 0.63433 1.4017 1.7528 0.20923 1.2427 0.22825 2.7584 0.0536 3.6408-0.20543 0.99416-0.69916 1.6782-1.2335 1.6782-0.41011 0-0.72563-0.39806-0.83652-1.0567-0.13384-0.79533-0.0286-1.6408 0.26265-2.2001 0.27671-0.49708 0.67876-0.84455 1.3142-1.1304l-0.31987-0.19851c-0.95797 0.58407-1.3692 0.86912-1.5594 1.0679-0.47344 0.50952-0.73623 1.8274-0.56259 2.8589 0.13806 0.82019 0.62084 1.3297 1.2795 1.3297 1.6652 0 2.9726-3.3801 2.4705-6.3627-0.22586-1.3421-2.7907-2.1134-1.8463-2.1134zm-102.86 0.73335c0.5986 0.01168 0.7519 0.03775 0.94053 0.1248 0.32127 0.13671 0.56809 0.49664 0.63713 0.90673 0.0983 0.58407-0.0869 1.1809-0.45509 1.504-0.33712 0.28582-0.69111 0.39759-1.3601 0.41002zm98.795 0.24878c-1.0812 0-2.2294 0.63404-3.1389 1.7276-1.0025 1.2054-1.4327 2.8583-1.1607 4.4738 0.21552 1.28 1.0533 2.0501 2.2339 2.0501 1.0812 0 2.3396-0.49654 3.2827-1.3167l0.0244-0.37362c0.0834-1.2764-1.8017 1.1061-2.6716 1.1061-0.98174 0-1.7291-0.74556-1.9279-1.9261-0.0628-0.37281-0.0861-0.73298-0.0703-1.1555 0.36592-0.4101 0.56891-0.53398 0.85473-0.53398 0.23611 0 0.3835 0.06173 0.80444 0.3476 0.43336 0.28582 0.68851 0.39789 0.97434 0.39789 0.36037 0 0.79898-0.199 1.523-0.69609l0.026-0.3606c0.0417-0.57796-0.78415 0.50971-1.0575 0.50971-0.19883 0-0.37251-0.07482-0.81831-0.36062-0.50179-0.3231-0.70267-0.41002-0.97607-0.41002-0.31065 0-0.62333 0.13688-1.2812 0.58426 0.24305-2.0256 1.4147-3.4795 2.819-3.4795 0.74562 0 1.1956 0.45982 1.4355 1.4416l0.78788-0.78277c-0.11659-0.39766-0.22521-0.59722-0.40568-0.78362-0.28421-0.28584-0.7607-0.45944-1.2578-0.45944zm-89.592 1.2673-0.51491 0.26093-0.03723 0.29818c-0.46165 0.13671-0.65983 0.21176-1.1026 0.46031l-0.0016 0.3606c0.40972-0.22369 0.5936-0.3106 1.0428-0.44729l-0.50189 2.038c-0.29394 1.1936-0.65729 1.777-1.0922 1.777-0.09947 0-0.17877-0.02549-0.3632-0.08756l-0.44556 0.74549c-0.17639 0.29513 0.65474 0.12481 0.79144 0.12481 0.41009 0 0.71416-0.26083 0.9804-0.82004 0.20225-0.42252 0.35867-0.9695 0.64666-2.1376l0.43344-1.777c0.07595-0.31137 0.52672-0.12479 0.65098-0.12479 0.17398 0 0.30186 0.09997 0.33114 0.27391 0.02097 0.1243 0.0066 0.26083-0.06072 0.82004-0.26202 1.8392-0.32256 2.8085-0.21585 3.4423 0.03557 0.21126 0.1295 0.32333 0.26613 0.32333 0.24853 0 0.89804-0.42228 2.0232-1.3419l0.0016-0.36062c-0.57508 0.42253-0.64359 0.45999-0.83391 0.58426-0.09108 0.04965-0.15952 0.08639-0.16991 0.0988-0.07868 0.04965-0.15919 0.08756-0.20891 0.08756-0.09946 0-0.20368-0.17449-0.23926-0.38575-0.07112-0.42253-0.05267-0.83223 0.09025-2.1246 0.10215-0.79535 0.1503-1.467 0.13352-1.5664-0.03137-0.1864-0.16573-0.24791-0.56346-0.24791-0.38524 0-0.70183 0.03723-1.1304 0.14912zm12.158 0.24878-0.944 0.52185-0.0936 1.8767h-1.7528l0.13436-1.6401c0.0265-0.28582 0.03036-0.48483 0.01996-0.54698-0.01676-0.09946-0.08957-0.16204-0.18896-0.16204-0.13671 0-0.91864 0.44805-1.7814 1.0073l-0.02081 0.32247c-0.05175 0.8019 0.78273-0.37275 0.89458-0.37275 0.08706 0 0.16188 0.07482 0.17856 0.17424 0.04597 0.27339-0.0084 1.2795-0.13873 2.4228l-0.11709 1.0073c-0.03036 0.4101-0.0567 0.62124-0.06072 0.67095l0.87119-0.3606 0.1664-2.1125c0.77663-0.03723 0.8018-0.03691 1.3713-0.04949l0.39529-0.01345-0.01996 0.24878c-0.12799 1.5285-0.1238 1.5531-0.08405 1.7892 0.05015 0.29825 0.18085 0.48542 0.3424 0.48542 0.22369 0 1.0263-0.54712 1.9964-1.3549l0.02869-0.34848c0.10559-1.2826-1.1691 0.73335-1.2933 0.73337-0.12431 0-0.22015-0.12413-0.25571-0.33547-0.05233-0.31068-0.01002-0.94457 0.17424-2.5104zm-16.097 0.04949c-0.21128 0-0.8757 0.41047-1.7796 1.094l0.03389 0.3476c0.07781 0.79804 0.72466-0.42216 0.8365-0.42216 0.09947 0 0.16154 0.07482 0.18466 0.21151 0.02935 0.17399 0.02112 0.34748-0.04597 1.0558-0.22003 2.1623-0.21998 2.1622-0.16556 2.4853 0.05015 0.29825 0.19589 0.49757 0.38229 0.49757 0.21126 0 0.50646-0.16171 1.094-0.58426 0.22342-0.14913 0.43515-0.29788 0.64406-0.45942 0.13454-0.08706 0.19002-0.12447 0.31206-0.21153l-0.0084-0.34846-0.19244 0.11273c-0.78525 0.46001-0.9171 0.53397-1.0662 0.53397-0.13671 0-0.24615-0.13638-0.28171-0.3476-0.03557-0.21126-0.03607-0.21121 0.09796-1.8516 0.14174-1.8889 0.14158-1.8891 0.12481-1.9886-0.01168-0.07448-0.08286-0.1248-0.16989-0.1248zm8.5376 0c-0.13671 0-0.81501 0.39776-1.777 1.0315l0.0066 0.33547c0.0099 0.50146 0.63539-0.35975 0.78451-0.35975 0.13671 0 0.21132 0.07448 0.24271 0.26091 0.03976 0.23612 0.0084 0.85745-0.09193 1.7398-0.08958 0.86991-0.10382 1.0061-0.06408 1.2422 0.08991 0.53435 0.71562 1.0073 1.3246 1.0073 1.0314 0 2.3843-1.4174 2.2295-2.337-0.10887-0.64622-0.53447-1.1061-1.0315-1.1061-0.12431 0-0.24231 0.03791-0.38922 0.12479l-0.88939 0.54698 0.04597 0.42215c0.0404 0.37098 0.54232-0.39787 0.77844-0.39787 0.33552 0 0.57588 0.2487 0.64493 0.6588 0.12765 0.75806-0.3703 1.4164-1.0662 1.4164-0.4101 0-0.692-0.27326-0.77149-0.74548-0.03775-0.22369-0.04043-0.60905-0.01829-0.91973l0.14829-1.7025c0.03255-0.39766 0.05803-0.98183 0.04328-1.0688-0.0151-0.08706-0.08689-0.14912-0.14912-0.14912zm11.682 0c-0.50951 0-0.75 0.04999-1.0272 0.24878-0.40344 0.26098-0.86028 0.64605-0.99255 0.82004-0.38436 0.52194-0.61155 2.1999-0.44209 3.2065 0.10048 0.5965 0.36634 0.99427 0.677 0.99427 0.27341 0 0.64168-0.24858 2.0068-1.367-0.03003 0.63379-0.02717 0.94456 0 1.1061 0.02935 0.17399 0.11842 0.26093 0.24273 0.26093 0.16154 0 0.25276-0.04965 1.0367-0.63366 0.37441-0.28584 0.58315-0.44724 0.98648-0.78277l-0.05031-0.37362c-0.13545-1.0059-0.9931 0.74636-1.1174 0.74636-0.08706 0-0.16557-0.09965-0.19071-0.2488-0.05653-0.33552 0.0084-1.64 0.18204-3.3426 0.10316-0.19883 0.12396-0.22446 0.2852-0.44816-0.61953-0.13671-1.05-0.18636-1.5967-0.18636zm-0.62498 0.57213c0.22369 0 0.65672 0.06174 1.0835 0.1612-0.09796 0.89475-0.12799 1.2303-0.13 1.2925-0.02231 0.31068-0.03187 0.62177-0.052 0.94486-0.0016 0.06207-0.01345 0.21089-0.04077 0.42215-0.38055 0.32311-0.57738 0.48515-0.58773 0.49758-0.36615 0.26096-0.66194 0.42215-0.8235 0.42215-0.21126 0-0.36127-0.22386-0.42822-0.62153-0.10668-0.63377-0.05787-1.4541 0.14393-2.1749 0.18318-0.68349 0.41225-0.94398 0.83477-0.94398zm85.142 0.04931c-0.14694 0.08706-0.24833 0.14929-0.29388 0.17424-0.13654 0.07448-0.27278 0.14929-0.42387 0.21151-0.033 0.02483-0.10135 0.06155-0.22538 0.13604-0.0346 0.31068-0.0937 1.1437-0.18899 2.4983l-0.0408 0.49669c-0.0865 1.0528-1.2263 0.90758-1.3878 0.90758-0.13671 0-0.26537-0.1739-0.30513-0.41-0.0481-0.28584-0.0322-0.7832 0.0451-1.5785 0.0449-0.47224 0.0894-0.94486 0.0893-1.0194 0.0324-0.47224 0.0671-0.78246 0.0772-0.86944 0.0136-0.13671 0.0183-0.26091 6e-3 -0.33547-0.0167-0.09946-0.0897-0.1612-0.17684-0.1612-0.12433 0-0.93714 0.48446-1.7502 1.0437l-0.0303 0.33546c-0.0503 0.55737 0.69692-0.3606 0.84604-0.3606 0.0994 0 0.189 0.08672 0.21411 0.23578 0.0294 0.17398-8.8e-4 0.65892-0.0885 1.5412-0.11401 1.1682-0.13249 1.5042-0.072 1.8646 0.0585 0.34795 0.25189 0.60851 0.45073 0.60851 0.18641 0 0.3784-0.11172 0.94314-0.52184 0.86471-0.62134 0.8648-0.62178 1.1399-0.83304-0.0408 0.42252-0.0316 0.84514 7e-3 1.0688 0.0294 0.17398 0.13547 0.28606 0.27218 0.28606 0.24855 0 1.3014-0.68353 2.0501-1.3297l0.0244-0.37275c0.0614-0.93819-1.167 0.74549-1.3037 0.74549-0.0871 0-0.15163-0.0869-0.18723-0.2982-0.10671-0.63379 0.0314-2.4731 0.31033-4.0638zm5.7169 0-0.94401 0.52184-0.0944 1.8767h-1.7519l0.13358-1.6401c0.0265-0.28582 0.0305-0.48485 0.0199-0.54698-0.0167-0.09946-0.0894-0.1612-0.18898-0.1612-0.13672 0-0.91865 0.44719-1.7814 1.0064l-0.0199 0.32247c-0.0495 0.80202 0.7819-0.37275 0.89372-0.37275 0.0871 0 0.16187 0.07482 0.17858 0.17424 0.0459 0.27341-8e-3 1.2804-0.13873 2.4237l-0.11605 1.0064c-0.0303 0.41009-0.0574 0.62123-0.0616 0.67093l0.87119-0.3606 0.16725-2.1125c0.77665-0.03724 0.80093-0.03691 1.3705-0.04949l0.39614-0.01345-0.0207 0.24878c-0.12774 1.5286-0.12366 1.5539-0.0839 1.79 0.0501 0.29825 0.18088 0.48457 0.34241 0.48457 0.22368 0 1.0263-0.54712 1.9963-1.3549l0.0287-0.3476c0.10589-1.2825-1.1691 0.73248-1.2934 0.73248-0.12434 0-0.21927-0.12413-0.25484-0.33547-0.0523-0.31066-9e-3 -0.9437 0.17335-2.5095zm4.121 0.05031c-0.5095 0-0.74911 0.04915-1.0263 0.24793-0.40344 0.26096-0.86114 0.64606-0.99343 0.82002-0.38432 0.52196-0.61066 2.1999-0.44121 3.2065 0.10045 0.5965 0.36546 0.99428 0.67615 0.99428 0.27339 0 0.64165-0.24858 2.0068-1.367-0.0301 0.63378-0.0272 0.94454 0 1.1061 0.0294 0.17399 0.11863 0.26093 0.24271 0.26093 0.16154 0 0.25276-0.04965 1.0368-0.63368 0.37442-0.28582 0.58315-0.44722 0.98647-0.78276l-0.0502-0.37275c-0.13547-1.0059-0.99312 0.74549-1.1174 0.74549-0.0871 0-0.16575-0.09965-0.19072-0.24878-0.0565-0.33554 9e-3 -1.64 0.18292-3.3426 0.10317-0.19884 0.12419-0.2236 0.28517-0.44729-0.61952-0.13671-1.0508-0.18638-1.5976-0.18638zm-0.62413 0.57126c0.22369 0 0.65673 0.06189 1.0836 0.1612-0.0979 0.89475-0.12814 1.2303-0.13004 1.2925-0.0222 0.31066-0.0328 0.62175-0.0528 0.94486-1e-3 0.06207-0.0136 0.21089-0.0408 0.42215-0.38055 0.32311-0.57652 0.48515-0.58685 0.49756-0.36617 0.26098-0.66283 0.42216-0.82438 0.42216-0.21126 0-0.3604-0.22386-0.42735-0.62153-0.10671-0.63379-0.0587-1.4533 0.14309-2.1741 0.18318-0.68349 0.41312-0.94486 0.83563-0.94486zm-119.01 0.21152c0.98174 0 1.6022 0.43444 1.732 1.2049 0.0795 0.47224-0.02784 1.0191-0.27998 1.367-0.27067 0.38524-0.73439 0.58424-1.3558 0.58426-0.33554 0-0.61302-0.02448-1.8663-0.1612 1.0358-1.0812 1.1851-1.3798 1.2578-2.4982l0.04429-0.47244c0.23194-0.02483 0.34383-0.02433 0.46811-0.02433zm12.052 138.26c-0.36581-0.11513-0.4897 0.48458-0.86251 0.48458-0.12431 0-0.23801-0.0122-0.50536-0.0503-0.25272-0.0248-0.37966-0.0372-0.49151-0.0372-0.82019 0-1.4631 0.60944-1.9911 1.9019-0.64357 1.5658-0.89502 3.3929-0.66487 4.7598 0.16523 0.98175 0.63238 1.5404 1.2786 1.5404 0.43496 0 1.0126-0.26112 1.6973-0.77062 0.90395-0.68351 1.2989-1.802 1.0792-3.1068-0.15064-0.89475-0.59048-1.367-1.2864-1.367-0.47222 0-1.0994 0.26112-1.8152 0.73335 0.14527-1.0563 0.29934-1.8388 0.45596-2.311 0.16902-0.47223 0.42408-0.65881 0.93359-0.65881 0.13671 0 0.24986 0.0122 0.52964 0.0493 0.24239 0.0372 0.39382 0.0494 0.53051 0.0494 0.50952 0 0.73734-0.19805 1.3488-1.1425zm96.588 0.84432c-0.0272 0.068-0.095 0.0996-0.1508 0.13688-0.12814 0.12434-0.21251 0.21178-0.23319 0.23666-0.10967 0.0871-0.19685 0.16086-0.36232 0.28518 0.14761 0.28581 0.2765 0.46022 0.61892 0.87032 0.18812-0.21125 0.26196-0.28574 0.34673-0.37275 0.066-0.0497 0.11024-0.0875 0.34588-0.31119-0.17438-0.22371-0.24129-0.32274-0.30773-0.42217-0.0499-0.0746-0.15754-0.77274-0.25746-0.42301zm1.6531 0c-0.33293 0.31067-0.58298 0.52211-0.74634 0.6588 0.14762 0.28583 0.27981 0.48508 0.61805 0.87032 0.22949-0.26096 0.26072-0.29817 0.34761-0.37273 0.0536-0.0496 0.0751-0.075 0.34586-0.3112-0.17436-0.22371-0.25342-0.32275-0.31987-0.42218-0.0499-0.0746-0.0685-0.1124-0.24531-0.42301zm-17.8 0.0502c0.85249-0.5115-1.587 0.98151-2.65 4.4114-0.0122-0.65865-0.0258-0.96936-0.0928-1.367-0.27407-1.628-1.1048-2.6465-2.161-2.6465-1.5037 0-2.9049 1.5652-2.6664 2.982 0.0627 0.37282 0.21201 0.74601 0.45075 1.1312l0.84432-0.5964c0.54509-0.38503-0.39455-0.86995-0.45943-1.2552-0.14644-0.8699 0.33418-1.5534 1.0922-1.5534 1.106 0 2.0012 1.2545 2.3422 3.2802 0.10671 0.63379 0.11366 1.1187 0.0295 1.5785-0.1295 0.63377-0.3187 1.2051-0.57473 1.6774-0.34894 0.65864-0.89093 0.90759-1.9721 0.90759-0.21126 0-0.41278-0.0122-0.91623-0.0494l-0.28 0.91886c-0.074 0.2429 0.32703 0.0252 0.57559 0.0252 1.1433 0 1.6717-0.1116 2.135-0.45942 0.54199-0.39765 1.0351-1.4544 1.8594-3.9398 0.85517-2.5973 0.95617-2.883 1.2101-3.3677 0.28493-0.52194 0.53708-0.72035 0.92232-0.72035 0.19884 0 0.34202 0.0372 0.64668 0.14912l0.19504-0.9076c0.0563-0.26185-0.71168-0.0899-0.53052-0.19851zm-92.035 0.21065c-1.0812 0-2.2303 0.63404-3.1397 1.7276-1.0025 1.2054-1.4327 2.8583-1.1607 4.4738 0.2155 1.28 1.0542 2.051 2.2347 2.051 1.0812 0 2.3397-0.49741 3.2828-1.3176l0.02432-0.37273c0.08328-1.2764-1.8026 1.1061-2.6725 1.1061-0.98173 0-1.7282-0.74556-1.927-1.9261-0.43518-2.5848 0.95809-5.1577 2.7973-5.1577 0.74563 0 1.1957 0.45983 1.4355 1.4416l0.78797-0.78276c-0.11659-0.39765-0.22431-0.59638-0.40482-0.78278-0.28425-0.28582-0.76071-0.46028-1.2578-0.46028zm95.862 2.0762c-0.64619 0-1.3387 0.75747-2.8467 3.0938h-0.0372l0.21236-2.2122c0.0203-0.24853 0.0317-0.47156 0.0191-0.54611-0.015-0.0871-0.10102-0.16205-0.18811-0.16205-0.13672 0-0.92983 0.46049-1.7822 1.0073l-0.0199 0.32248c-0.0463 0.75036 0.78274-0.37274 0.89457-0.37274 0.0871 0 0.16104 0.0748 0.17771 0.17423 0.0459 0.27339-9e-3 1.2671-0.13872 2.4228l-0.11618 1.0073c2e-3 0.0871-0.0173 0.27326-0.0615 0.67093l0.8677-0.31119 0.0831-1.2049 0.46809-0.83303 1.1512 1.8143c0.44027 0.69593 0.90284 1.2303 1.3549 1.5534 0.47392 0.34485 1.1112 0.57976 1.7216 0.65533-0.0241 0.27084-0.0445 0.54586-0.0703 0.80963l-0.44383 0.0269-0.30512 0.39701c0.22563 0.0122 0.37416 0.0122 0.42388 0.0122l0.89718 0.0122 0.79751 0.0122c0.0994 0 0.27295-4.1e-4 0.58165-0.0122l0.33286-0.31031-1.4043-0.0745c0.0227-0.50617 0.031-0.65797 0.0424-0.87983 0.31355-0.0528 0.54835-0.17168 0.79836-0.39876l-0.4048-0.85731c-0.10921 0.28938-0.22715 0.5035-0.36408 0.6588 0.0122-0.20901 0.0194-0.41685 0.0321-0.63539l0.0467-0.53485c0.0228-0.26063 0.39553 0.0624 0.60678 0.0624 0.68349 0 0.81023-0.0625 1.6435-0.8703 0.36601-0.33555 0.48539-0.50907 0.61112-0.86946 0.26167-0.80777 0.35938-1.7769 0.24014-2.4852-0.10044-0.5965-0.42558-0.98213-0.83566-0.98213-0.29825 0-0.68969 0.1863-1.1364 0.5591-0.47984 0.39766-0.7734 0.64636-0.89545 0.73335 0.0505-0.73319 0.0745-1.1055 0.0703-1.1304-0.0122-0.0745-0.11426-0.16204-0.20109-0.16204-0.12433 0-1.0405 0.53414-1.868 1.0809l-0.0199 0.32333c0.0809-0.0372 0.24148-0.11229 0.47328-0.21151 0.2173-0.11183 0.26555-0.12393 0.36496-0.12393 0.14911 0 0.25707 0.12474 0.29473 0.34847 0.0649 0.38612-0.076 2.8133-0.28089 5.1898-0.6501-0.0888-1.3955-0.73785-2.0873-1.8334l-1.6262-2.5728c-0.77101-1.2198 1.2115-1.5161 1.5595-1.5161 0.21126 0 0.40369 0.11206 0.63192 0.3606l0.46029-0.95699c-0.2654-0.174-0.47699-0.24792-0.72555-0.24792zm-69.174 0.11184-0.94313 0.5227-0.09444 1.8759h-1.7519l0.13352-1.6401c0.0265-0.28583 0.03036-0.48484 0.01996-0.54698-0.01676-0.0994-0.08957-0.1612-0.18896-0.1612-0.13671 0-0.91864 0.4472-1.7814 1.0064l-0.01996 0.32333c-0.04951 0.80205 0.78186-0.37275 0.89371-0.37275 0.08706 0 0.16187 0.0739 0.17856 0.17337 0.04597 0.27338-0.0084 1.2804-0.13872 2.4237l-0.11709 1.0064c-0.03036 0.41008-0.0567 0.62124-0.06072 0.67095l0.87118-0.35975 0.1664-2.1134c0.77664-0.0372 0.80179-0.0379 1.3714-0.0503l0.39529-0.0122-0.01996 0.24792c-0.12309 1.5289-0.12379 1.5539-0.08404 1.79 0.05015 0.29824 0.18085 0.48456 0.3424 0.48456 0.22369 0 1.0263-0.54712 1.9963-1.3549l0.02869-0.34761c0.10585-1.2825-1.169 0.73335-1.2933 0.73335-0.12431 0-0.22015-0.12433-0.25571-0.33547-0.05234-0.31068-0.01002-0.94458 0.17424-2.5104zm88.368 0-0.94401 0.5227-0.0936 1.8759h-1.7528l0.13438-1.6401c0.0263-0.28583 0.0303-0.48484 0.0199-0.54698-0.0167-0.0994-0.0894-0.1612-0.18895-0.1612-0.13671 0-0.91862 0.4472-1.7814 1.0064l-0.0208 0.32333c-0.0517 0.80191 0.78273-0.37275 0.8946-0.37275 0.0871 0 0.16187 0.0739 0.17856 0.17337 0.0459 0.27338-8e-3 1.2804-0.13873 2.4237l-0.11712 1.0064c-0.0303 0.41008-0.0565 0.62124-0.0607 0.67095l0.87119-0.35975 0.1664-2.1134c0.77663-0.0372 0.80092-0.0379 1.3705-0.0503l0.39617-0.0122-0.0208 0.24792c-0.12848 1.5284-0.12298 1.5539-0.0831 1.79 0.0501 0.29824 0.18092 0.48456 0.34241 0.48456 0.22368 0 1.0263-0.54712 1.9964-1.3549l0.0286-0.34761c0.10546-1.2825-1.1691 0.73335-1.2933 0.73335-0.12433 0-0.22017-0.12433-0.25573-0.33547-0.0523-0.31068-9e-3 -0.94458 0.17424-2.5104zm-96.537 0.0477c-0.0031-0.12426-1.0405 0.53416-1.868 1.081l-0.02081 0.32332c0.08069-0.0372 0.24234-0.11228 0.47416-0.21151 0.21728-0.11183 0.26465-0.12392 0.36408-0.12392 0.14912 0 0.25707 0.12474 0.29473 0.34847 0.07532 0.44739-0.11943 3.6406-0.37795 6.3124l-0.44296 0.0269-0.30598 0.39703c0.22565 0.0122 0.37416 0.0122 0.42388 0.0122l0.89718 0.0122 0.79751 0.0122c0.09946 0 0.27294-4e-4 0.58164-0.0122l0.33287-0.31034-1.4043-0.0745c0.03389-0.75805 0.04798-1.1188 0.06408-1.3176 0.01811-0.26097 0.02382-0.5215 0.03993-0.79489l0.04679-0.53486c0.0228-0.26065 0.39554 0.0624 0.6068 0.0624 0.68349 0 0.81023-0.0625 1.6436-0.87031 0.36602-0.33554 0.48539-0.50907 0.61111-0.86945 0.26168-0.80779 0.35938-1.7769 0.24013-2.4852-0.10049-0.5965-0.42555-0.98214-0.83564-0.98214-0.29825 0-0.6897 0.1863-1.1364 0.55911-0.47985 0.39765-0.77341 0.64636-0.89546 0.73335 0.05049-0.73319 0.07448-1.1055 0.07028-1.1304-0.01168-0.0745-0.11406-0.16204-0.20111-0.16204zm-13.657 1e-3c-0.49708 0-1.2312 0.35992-1.8724 0.90674-0.69492 0.59649-1.0371 1.8892-0.82784 3.1319 0.12548 0.74562 0.6295 1.2301 1.2881 1.2301 0.34797 0 0.68811-0.12393 1.1971-0.42217 0.56279-0.34796 0.92013-0.65903 1.0957-0.94486 0.38202-0.6835 0.57518-1.9008 0.43084-2.7583-0.11305-0.67107-0.65292-1.1434-1.3115-1.1434zm9.9913 0c-0.4971 0-1.2312 0.35992-1.8724 0.90674-0.69492 0.59649-1.0371 1.8892-0.82786 3.1319 0.12548 0.74562 0.63037 1.2301 1.289 1.2301 0.34797 0 0.68725-0.12393 1.1963-0.42217 0.56277-0.34796 0.92012-0.65903 1.0957-0.94486 0.38201-0.6835 0.57518-1.9008 0.43082-2.7583-0.11305-0.67107-0.6529-1.1434-1.3115-1.1434zm15.957 0c0.50951 0-0.75002 0.0499-1.0272 0.24879-0.40344 0.26095-0.86028 0.64603-0.99255 0.82003-0.38435 0.52193-0.61156 2.1999-0.44209 3.2065 0.10047 0.5965 0.36634 0.9934 0.67702 0.9934 0.27339 0 0.64164-0.24859 2.0067-1.367-0.03003 0.63377-0.02717 0.94454 0 1.1061 0.02935 0.17399 0.11842 0.26093 0.24273 0.26093 0.16154 0 0.25276-0.0494 1.0367-0.63368 0.37441-0.28582 0.58315-0.44723 0.98648-0.78277l-0.05034-0.37273c-0.13585-1.0059-0.9931 0.74548-1.1174 0.74548-0.08706 0-0.16557-0.0996-0.19071-0.24879-0.05653-0.33554 0.0084-1.64 0.18204-3.3426 0.10316-0.19885 0.12397-0.22361 0.2852-0.4473-0.61953-0.13671-1.05-0.18637-1.5968-0.18637zm74.449 0c0.50951 0-0.75004 0.0499-1.0272 0.24879-0.40344 0.26095-0.86026 0.64603-0.99254 0.82003-0.38435 0.52193-0.61154 2.1999-0.44207 3.2065 0.10044 0.5965 0.36631 0.9934 0.67699 0.9934 0.27342 0 0.64165-0.24859 2.0068-1.367-0.0301 0.63377-0.0272 0.94454 0 1.1061 0.0294 0.17399 0.11849 0.26093 0.24271 0.26093 0.16154 0 0.25277-0.0494 1.0368-0.63368 0.3744-0.28582 0.58314-0.44723 0.98648-0.78277l-0.0503-0.37273c-0.13584-1.0059-0.99309 0.74548-1.1174 0.74548-0.0871 0-0.16557-0.0996-0.1907-0.24879-0.0565-0.33554 9e-3 -1.64 0.1829-3.3426 0.10318-0.19885 0.12393-0.22361 0.28518-0.4473-0.61952-0.13671-2.1444-0.18637-1.5976-0.18637zm3.952 0c0.19304-0.0858-0.87568 0.41049-1.7796 1.094l0.0338 0.3476c0.0777 0.79805 0.72379-0.42215 0.83564-0.42215 0.0994 0 0.1617 0.0738 0.18463 0.21064 0.0294 0.17396 0.022 0.34836-0.0451 1.0567-0.22006 2.1623-0.22006 2.1621-0.16556 2.4852 0.0501 0.29825 0.19504 0.49671 0.3814 0.49671 0.21128 0 0.50761-0.16087 1.0827-0.58341 0.211-0.14912 0.42215-0.29874 0.63106-0.46029 0.11172-0.0746 0.22341-0.14845 0.29993-0.21063l0.0277-0.34848-0.19243 0.11183c-0.78685 0.45726-0.91622 0.53486-1.0653 0.53486-0.13671 0-0.24705-0.13721-0.28262-0.34847-0.0356-0.21126-0.0351-0.21122 0.0987-1.8516 0.14174-1.8889 0.14157-1.8891 0.12487-1.9886-0.0122-0.0746-0.0829-0.12392-0.1699-0.12392zm9.9661 0c-0.50951 0-0.74916 0.0499-1.0263 0.24879-0.40344 0.26095-0.86114 0.64603-0.99343 0.82003-0.38432 0.52193-0.61066 2.1999-0.44121 3.2065 0.10045 0.5965 0.36549 0.9934 0.67615 0.9934 0.27341 0 0.64165-0.24859 2.0068-1.367-0.0301 0.63377-0.0272 0.94454 0 1.1061 0.0294 0.17399 0.11849 0.26093 0.24271 0.26093 0.16154 0 0.25277-0.0494 1.0368-0.63368 0.37441-0.28582 0.58315-0.44723 0.98647-0.78277l-0.0502-0.37273c-0.13555-1.0059-0.99309 0.74548-1.1174 0.74548-0.0871 0-0.16575-0.0996-0.19072-0.24879-0.0565-0.33554 9e-3 -1.64 0.18292-3.3426 0.10317-0.19885 0.12419-0.22361 0.28517-0.4473-0.61952-0.13671-1.0508-0.18637-1.5976-0.18637zm-109.95 0.5472c0.50951 0 0.83976 0.40959 0.9674 1.1676 0.24269 1.4416-0.40351 2.9204-1.2734 2.9204-0.45981 0-0.83514-0.4593-0.9544-1.1676-0.0879-0.52194-0.07498-1.3302 0.02081-2.2373 0.46115-0.43498 0.91649-0.68308 1.2396-0.68308zm20.956 0.0244c0.22369 0 0.65672 0.0625 1.0835 0.16204-0.09796 0.89476-0.12799 1.2304-0.13 1.2925-0.02231 0.31069-0.03186 0.62089-0.052 0.94398-0.0016 0.0621-0.01345 0.21175-0.04077 0.42305-0.38055 0.32307-0.57738 0.48425-0.58771 0.49669-0.36617 0.26096-0.66196 0.42215-0.82351 0.42215-0.21126 0-0.36127-0.22302-0.42822-0.62067-0.10668-0.63378-0.05787-1.4542 0.14393-2.1749 0.18318-0.6835 0.41225-0.94485 0.83477-0.94485zm74.45 0c0.2237 0 0.65668 0.0625 1.0836 0.16204-0.0979 0.89476-0.12882 1.2304-0.13085 1.2925-0.0222 0.31069-0.0317 0.62089-0.0521 0.94398-1e-3 0.0621-0.0136 0.21175-0.0408 0.42305-0.38054 0.32307-0.57739 0.48425-0.58772 0.49669-0.36616 0.26096-0.66195 0.42215-0.8235 0.42215-0.21125 0-0.3604-0.22302-0.42736-0.62067-0.1067-0.63378-0.0586-1.4542 0.14308-2.1749 0.18319-0.6835 0.41313-0.94485 0.83567-0.94485zm13.918 0c-0.1 0.20007 0.65672 0.0625 1.0836 0.16204-0.0979 0.89476-0.12882 1.2304-0.13086 1.2925-0.0223 0.31069-0.0318 0.62089-0.052 0.94398-1e-3 0.0621-0.0136 0.21175-0.0408 0.42305-0.38054 0.32307-0.57651 0.48425-0.58684 0.49669-0.36617 0.26096-0.66283 0.42215-0.82438 0.42215-0.21127 0-0.3604-0.22302-0.42736-0.62067-0.1067-0.63378-0.0586-1.4542 0.1431-2.1749 0.18317-0.6835 0.41311-0.94485 0.83562-0.94485zm-114.24 0.0136c0.4971 0 0.88745 0.47198 1.0151 1.2301 0.08991 0.53437 0.02231 1.1681-0.17338 1.777-0.24112 0.70833-0.62346 1.094-1.0957 1.094-0.50951 0-0.90968-0.46018-1.0289-1.1685-0.2427-1.4416 0.41304-2.9325 1.2829-2.9325zm9.9913 0c0.49708 0 0.88746 0.47198 1.0151 1.2301 0.08991 0.53437 0.02231 1.1681-0.17336 1.777-0.24114 0.70833-0.62346 1.094-1.0957 1.094-0.50951 0-0.9097-0.46018-1.029-1.1685-0.24269-1.4416 0.41304-2.9325 1.2829-2.9325zm5.8833 0.24791c0.24855 0 0.45331 0.2614 0.52444 0.68395 0.09411 0.55921 0.03993 1.2672-0.15785 1.9383-0.21 0.74562-0.57231 1.1061-1.0818 1.1061-0.31068 0-0.66241-0.0992-0.98993-0.27306l0.01996-0.39788 0.04429-0.84517 0.05031-0.80791c0.0016-0.0621 0.01168-0.2236 0.02432-0.44728 0.88106-0.74563 1.2433-0.95701 1.5664-0.95701zm80.165 0c-0.24855 0 0.45416 0.2614 0.5253 0.68395 0.0942 0.55921 0.04 1.2672-0.15768 1.9383-0.20999 0.74562-0.57233 1.1061-1.0818 1.1061-0.3107 0-0.66327-0.0992-0.99081-0.27306l0.0208-0.39788 0.0443-0.84517 0.0503-0.80791c1e-3 -0.0621 0.0122-0.2236 0.0234-0.44728 0.88105-0.74563 1.2433-0.95701 1.5664-0.95701z" fill="#ff0000" style="font-feature-settings:normal;font-variant-caps:normal;font-variant-ligatures:normal;font-variant-numeric:normal"/>
</svg>
